<svg width="731" height="856" viewBox="0 0 731 856" fill="none" xmlns="http://www.w3.org/2000/svg">
<mask id="mask0_5_36" style="mask-type:alpha" maskUnits="userSpaceOnUse" x="0" y="0" width="731" height="872">
<rect y="872" width="872" height="731" transform="rotate(-90 0 872)" fill="url(#paint0_radial_5_36)"/>
</mask>
<g mask="url(#mask0_5_36)">
</g>
<g clip-path="url(#clip0_5_36)">
<g opacity="0.7">
<path opacity="0.11" d="M548.731 643.642C548.378 643.097 547.65 642.942 547.106 643.296C546.561 643.649 546.406 644.377 546.76 644.921C547.113 645.465 547.841 645.62 548.385 645.267C548.929 644.914 549.084 644.186 548.731 643.642Z" fill="white"/>
<path d="M552.073 636.927C551.808 636.519 551.262 636.403 550.854 636.668C550.446 636.933 550.33 637.479 550.595 637.887C550.859 638.295 551.405 638.411 551.813 638.146C552.221 637.881 552.337 637.336 552.073 636.927Z" fill="white"/>
<path d="M531.179 627.38C530.914 626.972 530.368 626.856 529.96 627.121C529.552 627.386 529.436 627.931 529.701 628.339C529.965 628.748 530.511 628.864 530.919 628.599C531.327 628.334 531.444 627.788 531.179 627.38Z" fill="white"/>
<path d="M557.366 669.895C557.101 669.487 556.555 669.371 556.147 669.636C555.739 669.901 555.623 670.446 555.887 670.854C556.152 671.262 556.698 671.379 557.106 671.114C557.514 670.849 557.63 670.303 557.366 669.895Z" fill="white"/>
<path opacity="0.11" d="M585.015 686.61C584.662 686.066 583.934 685.911 583.39 686.264C582.846 686.617 582.691 687.345 583.044 687.889C583.397 688.434 584.125 688.589 584.669 688.235C585.214 687.882 585.368 687.154 585.015 686.61Z" fill="white"/>
<path d="M580.25 703C580.073 702.728 579.71 702.65 579.438 702.827C579.166 703.003 579.088 703.367 579.265 703.639C579.441 703.911 579.805 703.988 580.077 703.812C580.349 703.635 580.426 703.272 580.25 703Z" fill="white"/>
<path d="M568.903 632.657C568.727 632.385 568.363 632.307 568.091 632.484C567.819 632.66 567.742 633.024 567.918 633.296C568.095 633.568 568.458 633.645 568.73 633.469C569.002 633.292 569.08 632.929 568.903 632.657Z" fill="white"/>
<path d="M499.21 525.258C499.034 524.986 498.67 524.909 498.398 525.085C498.126 525.262 498.049 525.625 498.225 525.897C498.402 526.169 498.765 526.246 499.037 526.07C499.309 525.894 499.387 525.53 499.21 525.258Z" fill="white"/>
<path d="M437.76 488.829C437.584 488.557 437.22 488.479 436.948 488.656C436.676 488.832 436.599 489.196 436.775 489.468C436.952 489.74 437.315 489.817 437.587 489.641C437.859 489.464 437.937 489.101 437.76 488.829Z" fill="white"/>
<path d="M461.253 446.274C461.077 446.002 460.713 445.924 460.441 446.101C460.169 446.277 460.092 446.641 460.268 446.913C460.445 447.185 460.808 447.262 461.08 447.086C461.352 446.909 461.43 446.546 461.253 446.274Z" fill="white"/>
<path d="M663.047 804.696C662.871 804.424 662.507 804.347 662.235 804.523C661.963 804.7 661.886 805.063 662.062 805.335C662.239 805.607 662.602 805.684 662.874 805.508C663.146 805.331 663.224 804.968 663.047 804.696Z" fill="white"/>
<path opacity="0.11" d="M641.238 829.345C641.062 829.073 640.698 828.995 640.426 829.172C640.154 829.348 640.077 829.712 640.254 829.984C640.43 830.256 640.794 830.333 641.065 830.156C641.337 829.98 641.415 829.616 641.238 829.345Z" fill="white"/>
<path opacity="0.11" d="M666.316 843.172C666.139 842.9 665.776 842.822 665.504 842.999C665.232 843.175 665.154 843.539 665.331 843.811C665.507 844.083 665.871 844.16 666.143 843.984C666.415 843.807 666.492 843.444 666.316 843.172Z" fill="white"/>
<path opacity="0.11" d="M685.324 807.735C685.148 807.463 684.784 807.385 684.512 807.562C684.24 807.738 684.163 808.102 684.339 808.374C684.516 808.646 684.879 808.723 685.151 808.547C685.423 808.37 685.501 808.007 685.324 807.735Z" fill="white"/>
<path opacity="0.11" d="M589.531 703.282C589.355 703.011 588.991 702.933 588.719 703.11C588.447 703.286 588.37 703.65 588.546 703.922C588.723 704.193 589.086 704.271 589.358 704.094C589.63 703.918 589.708 703.554 589.531 703.282Z" fill="white"/>
<path opacity="0.11" d="M587.278 622.125C587.101 621.853 586.738 621.775 586.466 621.952C586.194 622.128 586.116 622.492 586.293 622.764C586.469 623.036 586.833 623.113 587.105 622.937C587.377 622.76 587.454 622.396 587.278 622.125Z" fill="white"/>
<path opacity="0.11" d="M520.969 530.743C520.793 530.471 520.429 530.394 520.157 530.57C519.886 530.747 519.808 531.11 519.985 531.382C520.161 531.654 520.525 531.731 520.797 531.555C521.069 531.378 521.146 531.015 520.969 530.743Z" fill="white"/>
<path opacity="0.3" d="M636.024 790.024C635.847 789.752 635.484 789.675 635.212 789.851C634.94 790.028 634.863 790.391 635.039 790.663C635.216 790.935 635.579 791.013 635.851 790.836C636.123 790.66 636.2 790.296 636.024 790.024Z" fill="white"/>
<path d="M535.892 693.985C535.715 693.713 535.352 693.636 535.08 693.812C534.808 693.989 534.73 694.352 534.907 694.624C535.083 694.896 535.447 694.974 535.719 694.797C535.991 694.621 536.068 694.257 535.892 693.985Z" fill="white"/>
<path d="M485.675 618.758C485.498 618.486 485.135 618.409 484.863 618.586C484.591 618.762 484.513 619.126 484.69 619.398C484.866 619.669 485.23 619.747 485.502 619.57C485.774 619.394 485.851 619.03 485.675 618.758Z" fill="white"/>
<path d="M602.953 698.071C602.777 697.799 602.413 697.721 602.141 697.898C601.87 698.074 601.792 698.438 601.969 698.71C602.145 698.982 602.509 699.059 602.781 698.883C603.053 698.706 603.13 698.343 602.953 698.071Z" fill="white"/>
<path opacity="0.3" d="M625.334 732.555C625.158 732.283 624.794 732.206 624.522 732.382C624.25 732.559 624.173 732.922 624.349 733.194C624.526 733.466 624.889 733.544 625.161 733.367C625.433 733.191 625.511 732.827 625.334 732.555Z" fill="white"/>
<path opacity="0.11" d="M621.002 792.766C620.826 792.494 620.462 792.417 620.19 792.593C619.919 792.77 619.841 793.133 620.018 793.405C620.194 793.677 620.558 793.755 620.83 793.578C621.102 793.402 621.179 793.038 621.002 792.766Z" fill="white"/>
<path opacity="0.3" d="M541.96 677.438C541.784 677.166 541.42 677.089 541.148 677.266C540.876 677.442 540.799 677.806 540.975 678.078C541.152 678.349 541.515 678.427 541.787 678.25C542.059 678.074 542.137 677.71 541.96 677.438Z" fill="white"/>
<path opacity="0.3" d="M606.879 683.618C606.703 683.346 606.339 683.269 606.067 683.445C605.795 683.622 605.718 683.985 605.894 684.257C606.071 684.529 606.434 684.607 606.706 684.43C606.978 684.254 607.055 683.89 606.879 683.618Z" fill="white"/>
<path opacity="0.3" d="M650.487 740.032C650.311 739.76 649.947 739.683 649.676 739.859C649.404 740.036 649.326 740.399 649.503 740.671C649.679 740.943 650.043 741.02 650.315 740.844C650.587 740.667 650.664 740.304 650.487 740.032Z" fill="white"/>
<path opacity="0.3" d="M626.754 775.735C626.578 775.463 626.214 775.385 625.942 775.562C625.67 775.738 625.593 776.102 625.769 776.374C625.946 776.646 626.309 776.723 626.581 776.547C626.853 776.37 626.931 776.007 626.754 775.735Z" fill="white"/>
<path opacity="0.3" d="M426.426 470.282C426.25 470.01 425.886 469.932 425.614 470.109C425.342 470.285 425.265 470.649 425.441 470.921C425.618 471.193 425.981 471.27 426.253 471.094C426.525 470.917 426.603 470.554 426.426 470.282Z" fill="white"/>
<path opacity="0.11" d="M457.697 562.704C457.521 562.432 457.157 562.355 456.885 562.531C456.613 562.708 456.536 563.071 456.712 563.343C456.889 563.615 457.252 563.692 457.524 563.516C457.796 563.339 457.874 562.976 457.697 562.704Z" fill="white"/>
<path opacity="0.11" d="M456.238 469.836C456.062 469.564 455.698 469.486 455.426 469.663C455.154 469.839 455.077 470.203 455.253 470.475C455.43 470.747 455.793 470.824 456.065 470.648C456.337 470.471 456.415 470.108 456.238 469.836Z" fill="white"/>
<path opacity="0.3" d="M541.558 591.595C541.205 591.051 540.477 590.896 539.933 591.249C539.388 591.603 539.233 592.33 539.587 592.875C539.94 593.419 540.668 593.574 541.212 593.221C541.756 592.867 541.911 592.14 541.558 591.595Z" fill="white"/>
<path opacity="0.11" d="M507.916 572.118C507.563 571.573 506.836 571.418 506.291 571.772C505.747 572.125 505.592 572.852 505.945 573.397C506.298 573.941 507.026 574.096 507.57 573.743C508.115 573.39 508.27 572.662 507.916 572.118Z" fill="white"/>
<path d="M490.834 583.552C490.57 583.144 490.024 583.027 489.616 583.292C489.208 583.557 489.091 584.103 489.356 584.511C489.621 584.919 490.167 585.035 490.575 584.77C490.983 584.506 491.099 583.96 490.834 583.552Z" fill="white"/>
<path d="M564.62 583.973C564.355 583.565 563.809 583.449 563.401 583.714C562.993 583.979 562.877 584.524 563.142 584.932C563.406 585.341 563.952 585.457 564.36 585.192C564.768 584.927 564.884 584.381 564.62 583.973Z" fill="white"/>
<path d="M468.333 414.028C468.068 413.62 467.522 413.504 467.114 413.769C466.706 414.033 466.59 414.579 466.855 414.987C467.12 415.395 467.665 415.511 468.073 415.247C468.482 414.982 468.598 414.436 468.333 414.028Z" fill="white"/>
<path d="M667.44 739.184C667.175 738.776 666.63 738.66 666.222 738.925C665.814 739.19 665.697 739.735 665.962 740.144C666.227 740.552 666.773 740.668 667.181 740.403C667.589 740.138 667.705 739.593 667.44 739.184Z" fill="white"/>
<path d="M698.629 812.052C698.364 811.644 697.818 811.528 697.41 811.793C697.002 812.058 696.886 812.603 697.151 813.011C697.416 813.419 697.961 813.536 698.369 813.271C698.777 813.006 698.894 812.46 698.629 812.052Z" fill="white"/>
<path d="M684.359 833.216C684.094 832.808 683.548 832.691 683.14 832.956C682.732 833.221 682.616 833.767 682.881 834.175C683.145 834.583 683.691 834.699 684.099 834.434C684.507 834.169 684.623 833.624 684.359 833.216Z" fill="white"/>
<path d="M516.032 600.802C515.767 600.394 515.222 600.277 514.813 600.542C514.405 600.807 514.289 601.353 514.554 601.761C514.819 602.169 515.364 602.285 515.773 602.02C516.181 601.755 516.297 601.21 516.032 600.802Z" fill="white"/>
<path d="M608.114 662.864C607.849 662.456 607.303 662.34 606.895 662.605C606.487 662.87 606.371 663.415 606.636 663.823C606.9 664.231 607.446 664.348 607.854 664.083C608.262 663.818 608.378 663.272 608.114 662.864Z" fill="white"/>
<path d="M548.734 524.973C548.469 524.565 547.924 524.449 547.516 524.713C547.108 524.978 546.991 525.524 547.256 525.932C547.521 526.34 548.067 526.456 548.475 526.192C548.883 525.927 548.999 525.381 548.734 524.973Z" fill="white"/>
<path d="M430.515 416.169C430.25 415.761 429.705 415.645 429.296 415.91C428.888 416.175 428.772 416.72 429.037 417.128C429.302 417.536 429.847 417.653 430.256 417.388C430.664 417.123 430.78 416.577 430.515 416.169Z" fill="white"/>
<path d="M395.747 421.927C395.483 421.519 394.937 421.403 394.529 421.668C394.121 421.933 394.005 422.479 394.269 422.887C394.534 423.295 395.08 423.411 395.488 423.146C395.896 422.881 396.012 422.336 395.747 421.927Z" fill="white"/>
<path opacity="0.3" d="M464.951 542.587C464.598 542.043 463.87 541.888 463.326 542.241C462.781 542.595 462.626 543.322 462.98 543.867C463.333 544.411 464.061 544.566 464.605 544.213C465.149 543.859 465.304 543.132 464.951 542.587Z" fill="white"/>
<path d="M429.975 565.29C429.622 564.746 428.894 564.591 428.35 564.944C427.806 565.297 427.651 566.025 428.004 566.569C428.357 567.114 429.085 567.269 429.629 566.915C430.174 566.562 430.329 565.834 429.975 565.29Z" fill="white"/>
<path d="M459.325 510.184C459.06 509.776 458.514 509.66 458.106 509.925C457.698 510.19 457.582 510.735 457.847 511.144C458.111 511.552 458.657 511.668 459.065 511.403C459.473 511.138 459.59 510.593 459.325 510.184Z" fill="white"/>
<path opacity="0.3" d="M424.607 498.759C424.253 498.215 423.526 498.06 422.981 498.413C422.437 498.766 422.282 499.494 422.635 500.038C422.989 500.583 423.716 500.737 424.261 500.384C424.805 500.031 424.96 499.303 424.607 498.759Z" fill="white"/>
<path opacity="0.3" d="M427.934 427.29C427.58 426.745 426.853 426.59 426.308 426.944C425.764 427.297 425.609 428.024 425.962 428.569C426.316 429.113 427.043 429.268 427.588 428.915C428.132 428.562 428.287 427.834 427.934 427.29Z" fill="white"/>
<path opacity="0.3" d="M466.322 484.29C465.969 483.746 465.241 483.591 464.697 483.944C464.153 484.298 463.998 485.025 464.351 485.57C464.704 486.114 465.432 486.269 465.976 485.916C466.521 485.563 466.675 484.835 466.322 484.29Z" fill="white"/>
<path opacity="0.3" d="M658.201 761.626C657.848 761.082 657.121 760.927 656.576 761.28C656.032 761.634 655.877 762.361 656.23 762.906C656.583 763.45 657.311 763.605 657.856 763.252C658.4 762.898 658.555 762.171 658.201 761.626Z" fill="white"/>
<path opacity="0.3" d="M657.004 819.118C656.651 818.574 655.923 818.419 655.379 818.772C654.834 819.125 654.679 819.853 655.033 820.397C655.386 820.942 656.114 821.097 656.658 820.743C657.202 820.39 657.357 819.663 657.004 819.118Z" fill="white"/>
<path opacity="0.11" d="M426.262 457.079C425.909 456.535 425.181 456.38 424.637 456.733C424.093 457.087 423.938 457.814 424.291 458.359C424.644 458.903 425.372 459.058 425.916 458.705C426.461 458.351 426.615 457.624 426.262 457.079Z" fill="white"/>
<path opacity="0.3" d="M594.539 759.54C594.185 758.996 593.458 758.841 592.913 759.194C592.369 759.547 592.214 760.275 592.567 760.819C592.921 761.364 593.648 761.519 594.193 761.165C594.737 760.812 594.892 760.084 594.539 759.54Z" fill="white"/>
<path opacity="0.11" d="M593.318 779.235C592.965 778.69 592.237 778.535 591.693 778.889C591.148 779.242 590.993 779.97 591.347 780.514C591.7 781.058 592.428 781.213 592.972 780.86C593.516 780.507 593.671 779.779 593.318 779.235Z" fill="white"/>
<path opacity="0.3" d="M627.403 762.713C627.05 762.168 626.322 762.013 625.778 762.367C625.234 762.72 625.079 763.447 625.432 763.992C625.785 764.536 626.513 764.691 627.057 764.338C627.602 763.985 627.756 763.257 627.403 762.713Z" fill="white"/>
<path d="M606.931 732.248C606.666 731.839 606.12 731.723 605.712 731.988C605.304 732.253 605.188 732.799 605.453 733.207C605.718 733.615 606.263 733.731 606.671 733.466C607.079 733.201 607.196 732.656 606.931 732.248Z" fill="white"/>
<path opacity="0.11" d="M287.733 570.908C287.379 570.363 286.652 570.208 286.107 570.562C285.563 570.915 285.408 571.643 285.761 572.187C286.115 572.731 286.842 572.886 287.387 572.533C287.931 572.18 288.086 571.452 287.733 570.908Z" fill="white"/>
<path d="M291.075 564.192C290.81 563.784 290.265 563.668 289.856 563.932C289.448 564.197 289.332 564.743 289.597 565.151C289.862 565.559 290.407 565.675 290.816 565.41C291.224 565.146 291.34 564.6 291.075 564.192Z" fill="white"/>
<path d="M270.18 554.645C269.915 554.237 269.37 554.121 268.962 554.386C268.554 554.651 268.437 555.196 268.702 555.604C268.967 556.013 269.513 556.129 269.921 555.864C270.329 555.599 270.445 555.053 270.18 554.645Z" fill="white"/>
<path d="M296.368 597.161C296.103 596.753 295.557 596.637 295.149 596.902C294.741 597.167 294.625 597.712 294.89 598.12C295.154 598.529 295.7 598.645 296.108 598.38C296.516 598.115 296.632 597.569 296.368 597.161Z" fill="white"/>
<path opacity="0.11" d="M324.017 613.876C323.663 613.331 322.936 613.176 322.391 613.53C321.847 613.883 321.692 614.611 322.045 615.155C322.398 615.699 323.126 615.854 323.671 615.501C324.215 615.148 324.37 614.42 324.017 613.876Z" fill="white"/>
<path d="M319.253 630.266C319.076 629.994 318.713 629.917 318.441 630.093C318.169 630.27 318.091 630.633 318.268 630.905C318.444 631.177 318.808 631.254 319.08 631.078C319.352 630.901 319.429 630.538 319.253 630.266Z" fill="white"/>
<path d="M307.906 559.923C307.729 559.651 307.366 559.573 307.094 559.75C306.822 559.926 306.745 560.29 306.921 560.562C307.097 560.834 307.461 560.911 307.733 560.734C308.005 560.558 308.082 560.194 307.906 559.923Z" fill="white"/>
<path d="M238.213 452.524C238.037 452.252 237.673 452.175 237.401 452.351C237.129 452.528 237.052 452.891 237.228 453.163C237.405 453.435 237.768 453.513 238.04 453.336C238.312 453.16 238.39 452.796 238.213 452.524Z" fill="white"/>
<path d="M176.763 416.094C176.586 415.822 176.223 415.745 175.951 415.921C175.679 416.098 175.602 416.461 175.778 416.733C175.955 417.005 176.318 417.083 176.59 416.906C176.862 416.73 176.939 416.366 176.763 416.094Z" fill="white"/>
<path d="M200.258 373.54C200.082 373.268 199.718 373.191 199.446 373.367C199.174 373.544 199.097 373.907 199.273 374.179C199.45 374.451 199.813 374.529 200.085 374.352C200.357 374.176 200.435 373.812 200.258 373.54Z" fill="white"/>
<path d="M402.049 731.961C401.872 731.689 401.509 731.612 401.237 731.788C400.965 731.964 400.888 732.328 401.064 732.6C401.24 732.872 401.604 732.949 401.876 732.773C402.148 732.596 402.225 732.233 402.049 731.961Z" fill="white"/>
<path opacity="0.11" d="M380.241 756.61C380.064 756.338 379.701 756.261 379.429 756.437C379.157 756.614 379.079 756.977 379.256 757.249C379.432 757.521 379.796 757.599 380.068 757.422C380.34 757.246 380.417 756.882 380.241 756.61Z" fill="white"/>
<path opacity="0.11" d="M405.318 770.438C405.141 770.166 404.778 770.089 404.506 770.266C404.234 770.442 404.157 770.806 404.333 771.077C404.51 771.349 404.873 771.427 405.145 771.25C405.417 771.074 405.494 770.71 405.318 770.438Z" fill="white"/>
<path opacity="0.11" d="M424.327 735C424.15 734.729 423.787 734.651 423.515 734.828C423.243 735.004 423.166 735.368 423.342 735.64C423.519 735.912 423.882 735.989 424.154 735.812C424.426 735.636 424.503 735.272 424.327 735Z" fill="white"/>
<path opacity="0.11" d="M328.533 630.547C328.356 630.275 327.993 630.198 327.721 630.375C327.449 630.551 327.372 630.914 327.548 631.186C327.725 631.458 328.088 631.536 328.36 631.359C328.632 631.183 328.709 630.819 328.533 630.547Z" fill="white"/>
<path opacity="0.11" d="M326.28 549.391C326.103 549.119 325.74 549.042 325.468 549.218C325.196 549.395 325.119 549.758 325.295 550.03C325.472 550.302 325.835 550.38 326.107 550.203C326.379 550.027 326.456 549.663 326.28 549.391Z" fill="white"/>
<path opacity="0.11" d="M259.971 458.008C259.795 457.736 259.431 457.659 259.159 457.835C258.887 458.012 258.81 458.375 258.986 458.647C259.163 458.919 259.526 458.997 259.798 458.82C260.07 458.644 260.148 458.28 259.971 458.008Z" fill="white"/>
<path opacity="0.3" d="M375.026 717.29C374.85 717.018 374.486 716.941 374.214 717.117C373.942 717.294 373.865 717.657 374.041 717.929C374.218 718.201 374.581 718.279 374.853 718.102C375.125 717.926 375.203 717.562 375.026 717.29Z" fill="white"/>
<path d="M274.893 621.25C274.717 620.978 274.353 620.901 274.081 621.077C273.81 621.254 273.732 621.617 273.909 621.889C274.085 622.161 274.449 622.238 274.721 622.062C274.992 621.885 275.07 621.522 274.893 621.25Z" fill="white"/>
<path d="M224.676 546.024C224.5 545.752 224.136 545.675 223.864 545.851C223.592 546.028 223.515 546.391 223.691 546.663C223.868 546.935 224.231 547.013 224.503 546.836C224.775 546.66 224.853 546.296 224.676 546.024Z" fill="white"/>
<path d="M341.956 625.336C341.78 625.064 341.416 624.987 341.144 625.163C340.872 625.34 340.795 625.703 340.971 625.975C341.148 626.247 341.511 626.324 341.783 626.148C342.055 625.971 342.132 625.608 341.956 625.336Z" fill="white"/>
<path opacity="0.3" d="M364.335 659.821C364.159 659.549 363.795 659.472 363.523 659.648C363.251 659.824 363.174 660.188 363.351 660.46C363.527 660.732 363.89 660.809 364.162 660.633C364.434 660.456 364.512 660.093 364.335 659.821Z" fill="white"/>
<path opacity="0.11" d="M360.005 720.033C359.829 719.761 359.465 719.683 359.194 719.86C358.922 720.036 358.844 720.4 359.021 720.672C359.197 720.944 359.561 721.021 359.833 720.844C360.105 720.668 360.182 720.304 360.005 720.033Z" fill="white"/>
<path opacity="0.3" d="M280.961 604.704C280.785 604.432 280.421 604.355 280.149 604.531C279.877 604.708 279.8 605.071 279.976 605.343C280.153 605.615 280.516 605.693 280.788 605.516C281.06 605.34 281.138 604.976 280.961 604.704Z" fill="white"/>
<path opacity="0.3" d="M345.881 610.883C345.704 610.611 345.341 610.534 345.069 610.71C344.797 610.887 344.719 611.25 344.896 611.522C345.072 611.794 345.436 611.872 345.708 611.695C345.98 611.519 346.057 611.155 345.881 610.883Z" fill="white"/>
<path opacity="0.3" d="M389.49 667.297C389.314 667.025 388.95 666.948 388.678 667.124C388.406 667.301 388.329 667.664 388.505 667.936C388.682 668.208 389.045 668.286 389.317 668.109C389.589 667.933 389.667 667.569 389.49 667.297Z" fill="white"/>
<path opacity="0.3" d="M365.757 703.001C365.58 702.729 365.217 702.651 364.945 702.828C364.673 703.004 364.596 703.368 364.772 703.64C364.948 703.912 365.312 703.989 365.584 703.813C365.856 703.636 365.933 703.273 365.757 703.001Z" fill="white"/>
<path opacity="0.3" d="M165.428 397.547C165.252 397.275 164.888 397.198 164.616 397.374C164.344 397.551 164.267 397.914 164.443 398.186C164.62 398.458 164.983 398.536 165.255 398.359C165.527 398.183 165.604 397.819 165.428 397.547Z" fill="white"/>
<path opacity="0.11" d="M196.701 489.969C196.524 489.697 196.161 489.62 195.889 489.796C195.617 489.973 195.539 490.336 195.716 490.608C195.892 490.88 196.256 490.958 196.528 490.781C196.8 490.605 196.877 490.241 196.701 489.969Z" fill="white"/>
<path opacity="0.11" d="M195.241 397.102C195.065 396.83 194.701 396.753 194.429 396.929C194.157 397.106 194.08 397.469 194.256 397.741C194.433 398.013 194.796 398.091 195.068 397.914C195.34 397.738 195.418 397.374 195.241 397.102Z" fill="white"/>
<path opacity="0.3" d="M280.56 518.86C280.207 518.316 279.479 518.161 278.935 518.514C278.391 518.867 278.236 519.595 278.589 520.139C278.942 520.684 279.67 520.839 280.214 520.485C280.759 520.132 280.914 519.404 280.56 518.86Z" fill="white"/>
<path opacity="0.11" d="M246.919 499.384C246.565 498.84 245.838 498.685 245.293 499.038C244.749 499.391 244.594 500.119 244.947 500.663C245.301 501.208 246.028 501.363 246.573 501.009C247.117 500.656 247.272 499.929 246.919 499.384Z" fill="white"/>
<path d="M229.836 510.817C229.571 510.409 229.026 510.293 228.618 510.558C228.209 510.823 228.093 511.368 228.358 511.776C228.623 512.185 229.169 512.301 229.577 512.036C229.985 511.771 230.101 511.225 229.836 510.817Z" fill="white"/>
<path d="M303.621 511.239C303.356 510.831 302.81 510.715 302.402 510.98C301.994 511.244 301.878 511.79 302.143 512.198C302.408 512.606 302.953 512.722 303.361 512.458C303.77 512.193 303.886 511.647 303.621 511.239Z" fill="white"/>
<path d="M207.335 341.294C207.07 340.886 206.525 340.77 206.116 341.035C205.708 341.3 205.592 341.845 205.857 342.253C206.122 342.661 206.668 342.778 207.076 342.513C207.484 342.248 207.6 341.702 207.335 341.294Z" fill="white"/>
<path d="M406.443 666.45C406.178 666.042 405.632 665.926 405.224 666.191C404.816 666.456 404.7 667.001 404.964 667.409C405.229 667.817 405.775 667.934 406.183 667.669C406.591 667.404 406.707 666.858 406.443 666.45Z" fill="white"/>
<path d="M437.63 739.317C437.366 738.909 436.82 738.793 436.412 739.058C436.004 739.322 435.887 739.868 436.152 740.276C436.417 740.684 436.963 740.8 437.371 740.536C437.779 740.271 437.895 739.725 437.63 739.317Z" fill="white"/>
<path d="M423.36 760.481C423.095 760.073 422.55 759.957 422.142 760.222C421.734 760.487 421.617 761.033 421.882 761.441C422.147 761.849 422.693 761.965 423.101 761.7C423.509 761.435 423.625 760.89 423.36 760.481Z" fill="white"/>
<path d="M255.035 528.067C254.77 527.659 254.224 527.543 253.816 527.808C253.408 528.073 253.292 528.618 253.557 529.026C253.821 529.435 254.367 529.551 254.775 529.286C255.183 529.021 255.299 528.475 255.035 528.067Z" fill="white"/>
<path d="M347.115 590.13C346.85 589.722 346.304 589.606 345.896 589.87C345.488 590.135 345.372 590.681 345.637 591.089C345.902 591.497 346.447 591.613 346.855 591.349C347.264 591.084 347.38 590.538 347.115 590.13Z" fill="white"/>
<path d="M287.736 452.239C287.471 451.831 286.925 451.715 286.517 451.98C286.109 452.245 285.993 452.79 286.258 453.198C286.522 453.606 287.068 453.723 287.476 453.458C287.884 453.193 288 452.647 287.736 452.239Z" fill="white"/>
<path d="M169.517 343.434C169.252 343.026 168.706 342.91 168.298 343.175C167.89 343.44 167.774 343.985 168.039 344.393C168.304 344.801 168.849 344.918 169.257 344.653C169.665 344.388 169.782 343.842 169.517 343.434Z" fill="white"/>
<path d="M134.751 349.192C134.486 348.784 133.941 348.668 133.532 348.933C133.124 349.198 133.008 349.743 133.273 350.151C133.538 350.559 134.083 350.676 134.492 350.411C134.9 350.146 135.016 349.6 134.751 349.192Z" fill="white"/>
<path opacity="0.3" d="M203.952 469.853C203.599 469.309 202.871 469.154 202.327 469.507C201.782 469.86 201.628 470.588 201.981 471.132C202.334 471.677 203.062 471.832 203.606 471.478C204.15 471.125 204.305 470.398 203.952 469.853Z" fill="white"/>
<path d="M168.978 492.556C168.624 492.012 167.897 491.857 167.352 492.21C166.808 492.563 166.653 493.291 167.006 493.835C167.36 494.38 168.087 494.535 168.632 494.181C169.176 493.828 169.331 493.101 168.978 492.556Z" fill="white"/>
<path d="M198.327 437.45C198.062 437.042 197.516 436.926 197.108 437.191C196.7 437.456 196.584 438.001 196.849 438.409C197.114 438.818 197.659 438.934 198.067 438.669C198.476 438.404 198.592 437.858 198.327 437.45Z" fill="white"/>
<path opacity="0.3" d="M163.608 426.024C163.255 425.48 162.527 425.325 161.983 425.678C161.439 426.031 161.284 426.759 161.637 427.303C161.99 427.848 162.718 428.003 163.262 427.649C163.807 427.296 163.962 426.569 163.608 426.024Z" fill="white"/>
<path opacity="0.3" d="M166.936 354.556C166.583 354.012 165.855 353.857 165.31 354.21C164.766 354.563 164.611 355.291 164.964 355.835C165.318 356.38 166.045 356.535 166.59 356.181C167.134 355.828 167.289 355.1 166.936 354.556Z" fill="white"/>
<path opacity="0.3" d="M205.325 411.556C204.971 411.012 204.244 410.857 203.699 411.21C203.155 411.563 203 412.291 203.353 412.835C203.706 413.38 204.434 413.535 204.979 413.181C205.523 412.828 205.678 412.1 205.325 411.556Z" fill="white"/>
<path opacity="0.3" d="M397.204 688.892C396.85 688.348 396.123 688.193 395.578 688.546C395.034 688.899 394.879 689.627 395.232 690.171C395.586 690.716 396.313 690.871 396.858 690.517C397.402 690.164 397.557 689.436 397.204 688.892Z" fill="white"/>
<path opacity="0.3" d="M396.007 746.384C395.654 745.84 394.926 745.685 394.382 746.038C393.837 746.392 393.682 747.119 394.036 747.664C394.389 748.208 395.117 748.363 395.661 748.01C396.205 747.656 396.36 746.929 396.007 746.384Z" fill="white"/>
<path opacity="0.11" d="M165.264 384.345C164.911 383.801 164.184 383.646 163.639 383.999C163.095 384.352 162.94 385.08 163.293 385.624C163.646 386.169 164.374 386.324 164.919 385.97C165.463 385.617 165.618 384.889 165.264 384.345Z" fill="white"/>
<path opacity="0.3" d="M333.542 686.806C333.189 686.262 332.461 686.107 331.917 686.46C331.372 686.813 331.217 687.541 331.571 688.085C331.924 688.63 332.651 688.785 333.196 688.431C333.74 688.078 333.895 687.351 333.542 686.806Z" fill="white"/>
<path opacity="0.11" d="M332.319 706.501C331.966 705.957 331.238 705.802 330.694 706.155C330.15 706.509 329.995 707.236 330.348 707.781C330.701 708.325 331.429 708.48 331.973 708.127C332.518 707.773 332.672 707.046 332.319 706.501Z" fill="white"/>
<path opacity="0.3" d="M366.405 689.978C366.052 689.433 365.324 689.278 364.78 689.632C364.236 689.985 364.081 690.713 364.434 691.257C364.787 691.801 365.515 691.956 366.059 691.603C366.604 691.25 366.759 690.522 366.405 689.978Z" fill="white"/>
<path d="M345.932 659.512C345.668 659.104 345.122 658.988 344.714 659.253C344.306 659.518 344.189 660.063 344.454 660.472C344.719 660.88 345.265 660.996 345.673 660.731C346.081 660.466 346.197 659.921 345.932 659.512Z" fill="white"/>
<path opacity="0.11" d="M196.813 261.774C196.46 261.23 195.732 261.075 195.188 261.428C194.644 261.781 194.489 262.509 194.842 263.053C195.195 263.598 195.923 263.753 196.467 263.399C197.012 263.046 197.167 262.318 196.813 261.774Z" fill="white"/>
<path d="M200.155 255.059C199.89 254.651 199.344 254.535 198.936 254.8C198.528 255.065 198.412 255.61 198.677 256.018C198.942 256.426 199.487 256.543 199.896 256.278C200.304 256.013 200.42 255.467 200.155 255.059Z" fill="white"/>
<path d="M179.261 245.512C178.996 245.104 178.451 244.988 178.042 245.253C177.634 245.518 177.518 246.063 177.783 246.471C178.048 246.879 178.593 246.996 179.002 246.731C179.41 246.466 179.526 245.92 179.261 245.512Z" fill="white"/>
<path d="M205.447 288.028C205.183 287.62 204.637 287.504 204.229 287.769C203.821 288.034 203.705 288.579 203.969 288.987C204.234 289.395 204.78 289.512 205.188 289.247C205.596 288.982 205.712 288.436 205.447 288.028Z" fill="white"/>
<path opacity="0.11" d="M233.096 304.743C232.743 304.199 232.015 304.044 231.471 304.397C230.927 304.75 230.772 305.478 231.125 306.022C231.478 306.567 232.206 306.722 232.75 306.368C233.295 306.015 233.45 305.287 233.096 304.743Z" fill="white"/>
<path d="M228.333 321.133C228.156 320.861 227.793 320.784 227.521 320.96C227.249 321.137 227.171 321.5 227.348 321.772C227.524 322.044 227.888 322.122 228.16 321.945C228.432 321.769 228.509 321.405 228.333 321.133Z" fill="white"/>
<path d="M216.986 250.79C216.81 250.518 216.446 250.441 216.174 250.617C215.902 250.794 215.825 251.157 216.001 251.429C216.178 251.701 216.541 251.779 216.813 251.602C217.085 251.426 217.163 251.062 216.986 250.79Z" fill="white"/>
<path d="M147.293 143.391C147.117 143.119 146.753 143.042 146.481 143.218C146.209 143.395 146.132 143.758 146.308 144.03C146.485 144.302 146.848 144.38 147.12 144.203C147.392 144.027 147.47 143.663 147.293 143.391Z" fill="white"/>
<path d="M85.8428 106.961C85.6663 106.689 85.3027 106.612 85.0308 106.788C84.7588 106.965 84.6815 107.328 84.858 107.6C85.0344 107.872 85.3979 107.95 85.6699 107.773C85.9418 107.597 86.0192 107.233 85.8428 106.961Z" fill="white"/>
<path d="M109.336 64.4071C109.16 64.1352 108.796 64.0578 108.524 64.2343C108.252 64.4108 108.175 64.7743 108.351 65.0462C108.528 65.3181 108.891 65.3956 109.163 65.2191C109.435 65.0426 109.513 64.6791 109.336 64.4071Z" fill="white"/>
<path d="M311.129 422.829C310.953 422.557 310.589 422.48 310.317 422.656C310.045 422.833 309.968 423.196 310.144 423.468C310.321 423.74 310.684 423.818 310.956 423.641C311.228 423.465 311.306 423.101 311.129 422.829Z" fill="white"/>
<path opacity="0.11" d="M289.321 447.477C289.145 447.205 288.781 447.128 288.509 447.304C288.237 447.481 288.16 447.844 288.337 448.116C288.513 448.388 288.877 448.466 289.149 448.289C289.42 448.113 289.498 447.749 289.321 447.477Z" fill="white"/>
<path opacity="0.11" d="M314.399 461.305C314.222 461.033 313.859 460.955 313.587 461.132C313.315 461.308 313.237 461.672 313.414 461.944C313.59 462.216 313.954 462.293 314.226 462.117C314.498 461.94 314.575 461.577 314.399 461.305Z" fill="white"/>
<path opacity="0.11" d="M333.407 425.868C333.231 425.596 332.867 425.518 332.595 425.695C332.323 425.871 332.246 426.235 332.422 426.507C332.599 426.779 332.962 426.856 333.234 426.68C333.506 426.503 333.584 426.14 333.407 425.868Z" fill="white"/>
<path opacity="0.11" d="M237.613 321.415C237.437 321.143 237.073 321.066 236.801 321.242C236.529 321.419 236.452 321.782 236.629 322.054C236.805 322.326 237.169 322.404 237.441 322.227C237.712 322.051 237.79 321.687 237.613 321.415Z" fill="white"/>
<path opacity="0.11" d="M235.36 240.266C235.183 239.994 234.82 239.917 234.548 240.093C234.276 240.27 234.199 240.633 234.375 240.905C234.552 241.177 234.915 241.254 235.187 241.078C235.459 240.901 235.536 240.538 235.36 240.266Z" fill="white"/>
<path opacity="0.11" d="M169.052 148.875C168.875 148.603 168.512 148.526 168.24 148.702C167.968 148.879 167.891 149.242 168.067 149.514C168.244 149.786 168.607 149.864 168.879 149.687C169.151 149.511 169.228 149.147 169.052 148.875Z" fill="white"/>
<path opacity="0.3" d="M284.106 408.157C283.929 407.885 283.566 407.808 283.294 407.984C283.022 408.161 282.945 408.524 283.121 408.796C283.298 409.068 283.661 409.146 283.933 408.969C284.205 408.793 284.282 408.429 284.106 408.157Z" fill="white"/>
<path d="M183.975 312.118C183.798 311.846 183.435 311.769 183.163 311.945C182.891 312.122 182.813 312.485 182.99 312.757C183.166 313.029 183.53 313.107 183.802 312.93C184.074 312.754 184.151 312.39 183.975 312.118Z" fill="white"/>
<path d="M133.757 236.891C133.58 236.619 133.217 236.542 132.945 236.718C132.673 236.895 132.595 237.258 132.772 237.53C132.948 237.802 133.312 237.88 133.584 237.703C133.856 237.527 133.933 237.163 133.757 236.891Z" fill="white"/>
<path d="M251.037 316.204C250.861 315.932 250.497 315.855 250.225 316.031C249.953 316.208 249.876 316.571 250.052 316.843C250.229 317.115 250.592 317.193 250.864 317.016C251.136 316.84 251.214 316.476 251.037 316.204Z" fill="white"/>
<path opacity="0.3" d="M273.416 350.688C273.239 350.416 272.876 350.339 272.604 350.515C272.332 350.692 272.255 351.055 272.431 351.327C272.608 351.599 272.971 351.677 273.243 351.5C273.515 351.324 273.592 350.96 273.416 350.688Z" fill="white"/>
<path opacity="0.11" d="M269.085 410.899C268.909 410.627 268.545 410.55 268.273 410.726C268.001 410.903 267.924 411.266 268.101 411.538C268.277 411.81 268.641 411.888 268.912 411.711C269.184 411.535 269.262 411.171 269.085 410.899Z" fill="white"/>
<path opacity="0.3" d="M190.042 295.571C189.866 295.299 189.502 295.222 189.23 295.398C188.958 295.575 188.881 295.938 189.057 296.21C189.234 296.482 189.597 296.56 189.869 296.383C190.141 296.207 190.218 295.843 190.042 295.571Z" fill="white"/>
<path opacity="0.3" d="M254.961 301.75C254.785 301.478 254.421 301.401 254.149 301.577C253.878 301.754 253.8 302.117 253.977 302.389C254.153 302.661 254.517 302.739 254.789 302.562C255.061 302.386 255.138 302.022 254.961 301.75Z" fill="white"/>
<path opacity="0.3" d="M298.571 358.165C298.394 357.893 298.031 357.816 297.759 357.992C297.487 358.169 297.409 358.532 297.586 358.804C297.762 359.076 298.126 359.154 298.398 358.977C298.67 358.801 298.747 358.437 298.571 358.165Z" fill="white"/>
<path opacity="0.3" d="M274.837 393.868C274.661 393.596 274.297 393.519 274.025 393.695C273.753 393.872 273.676 394.235 273.852 394.507C274.029 394.779 274.392 394.857 274.664 394.68C274.936 394.504 275.014 394.14 274.837 393.868Z" fill="white"/>
<path opacity="0.3" d="M74.5093 88.4151C74.3328 88.1432 73.9693 88.0658 73.6974 88.2423C73.4254 88.4188 73.348 88.7823 73.5245 89.0542C73.701 89.3261 74.0645 89.4036 74.3365 89.2271C74.6084 89.0506 74.6858 88.6871 74.5093 88.4151Z" fill="white"/>
<path opacity="0.11" d="M105.781 180.836C105.604 180.564 105.24 180.487 104.969 180.663C104.697 180.84 104.619 181.203 104.796 181.475C104.972 181.747 105.336 181.825 105.608 181.648C105.88 181.472 105.957 181.108 105.781 180.836Z" fill="white"/>
<path opacity="0.11" d="M104.321 87.9691C104.145 87.6972 103.781 87.6198 103.509 87.7963C103.237 87.9728 103.16 88.3363 103.336 88.6082C103.513 88.8802 103.876 88.9575 104.148 88.781C104.42 88.6046 104.498 88.2411 104.321 87.9691Z" fill="white"/>
<path opacity="0.3" d="M189.641 209.728C189.287 209.184 188.56 209.029 188.015 209.382C187.471 209.735 187.316 210.463 187.669 211.007C188.023 211.552 188.75 211.707 189.295 211.353C189.839 211 189.994 210.272 189.641 209.728Z" fill="white"/>
<path opacity="0.11" d="M155.999 190.251C155.646 189.707 154.919 189.552 154.374 189.905C153.83 190.258 153.675 190.986 154.028 191.53C154.381 192.075 155.109 192.23 155.653 191.876C156.198 191.523 156.353 190.795 155.999 190.251Z" fill="white"/>
<path d="M138.917 201.684C138.652 201.276 138.106 201.16 137.698 201.425C137.29 201.69 137.174 202.235 137.439 202.643C137.704 203.051 138.249 203.168 138.657 202.903C139.066 202.638 139.182 202.092 138.917 201.684Z" fill="white"/>
<path d="M212.702 202.106C212.437 201.698 211.891 201.582 211.483 201.847C211.075 202.112 210.959 202.657 211.224 203.065C211.488 203.473 212.034 203.59 212.442 203.325C212.85 203.06 212.966 202.514 212.702 202.106Z" fill="white"/>
<path d="M116.416 32.1611C116.151 31.7529 115.605 31.6368 115.197 31.9016C114.789 32.1665 114.673 32.7121 114.938 33.1202C115.203 33.5284 115.748 33.6445 116.156 33.3797C116.565 33.1148 116.681 32.5692 116.416 32.1611Z" fill="white"/>
<path d="M315.523 357.317C315.258 356.909 314.713 356.793 314.305 357.058C313.897 357.323 313.78 357.868 314.045 358.276C314.31 358.684 314.856 358.801 315.264 358.536C315.672 358.271 315.788 357.725 315.523 357.317Z" fill="white"/>
<path d="M346.711 430.184C346.446 429.776 345.901 429.66 345.493 429.925C345.084 430.19 344.968 430.735 345.233 431.144C345.498 431.552 346.044 431.668 346.452 431.403C346.86 431.138 346.976 430.593 346.711 430.184Z" fill="white"/>
<path d="M332.441 451.348C332.176 450.94 331.631 450.824 331.222 451.088C330.814 451.353 330.698 451.899 330.963 452.307C331.228 452.715 331.773 452.831 332.182 452.566C332.59 452.302 332.706 451.756 332.441 451.348Z" fill="white"/>
<path d="M164.114 218.934C163.85 218.526 163.304 218.41 162.896 218.675C162.488 218.94 162.372 219.485 162.636 219.893C162.901 220.301 163.447 220.418 163.855 220.153C164.263 219.888 164.379 219.342 164.114 218.934Z" fill="white"/>
<path d="M256.196 280.997C255.931 280.589 255.385 280.473 254.977 280.738C254.569 281.003 254.453 281.548 254.717 281.956C254.982 282.364 255.528 282.481 255.936 282.216C256.344 281.951 256.46 281.405 256.196 280.997Z" fill="white"/>
<path d="M196.816 143.106C196.552 142.698 196.006 142.582 195.598 142.847C195.19 143.112 195.073 143.657 195.338 144.065C195.603 144.473 196.149 144.59 196.557 144.325C196.965 144.06 197.081 143.514 196.816 143.106Z" fill="white"/>
<path d="M78.5975 34.3016C78.3326 33.8934 77.7871 33.7773 77.3789 34.0421C76.9708 34.307 76.8546 34.8526 77.1195 35.2608C77.3843 35.6689 77.9299 35.785 78.3381 35.5202C78.7462 35.2553 78.8624 34.7097 78.5975 34.3016Z" fill="white"/>
<path d="M43.831 40.0588C43.5661 39.6506 43.0205 39.5345 42.6124 39.7994C42.2042 40.0642 42.0881 40.6098 42.3529 41.018C42.6178 41.4261 43.1634 41.5422 43.5715 41.2774C43.9797 41.0125 44.0958 40.4669 43.831 40.0588Z" fill="white"/>
<path opacity="0.3" d="M113.033 160.728C112.68 160.184 111.952 160.029 111.408 160.382C110.864 160.735 110.709 161.463 111.062 162.007C111.415 162.552 112.143 162.707 112.687 162.353C113.232 162 113.386 161.272 113.033 160.728Z" fill="white"/>
<path d="M78.0583 183.423C77.7051 182.879 76.9774 182.724 76.433 183.077C75.8887 183.43 75.7338 184.158 76.087 184.702C76.4403 185.247 77.168 185.402 77.7123 185.048C78.2567 184.695 78.4116 183.967 78.0583 183.423Z" fill="white"/>
<path d="M107.408 128.317C107.143 127.909 106.597 127.793 106.189 128.058C105.781 128.323 105.665 128.868 105.93 129.276C106.194 129.684 106.74 129.801 107.148 129.536C107.556 129.271 107.672 128.725 107.408 128.317Z" fill="white"/>
<path opacity="0.3" d="M72.6897 116.892C72.3364 116.348 71.6088 116.193 71.0644 116.546C70.5201 116.899 70.3651 117.627 70.7184 118.171C71.0717 118.716 71.7993 118.871 72.3437 118.517C72.888 118.164 73.0429 117.436 72.6897 116.892Z" fill="white"/>
<path opacity="0.3" d="M76.0165 45.4224C75.6633 44.8781 74.9356 44.7232 74.3912 45.0764C73.8469 45.4297 73.692 46.1573 74.0452 46.7017C74.3985 47.246 75.1262 47.4009 75.6705 47.0477C76.2149 46.6944 76.3698 45.9668 76.0165 45.4224Z" fill="white"/>
<path opacity="0.3" d="M114.405 102.423C114.052 101.879 113.324 101.724 112.78 102.077C112.236 102.43 112.081 103.158 112.434 103.702C112.787 104.247 113.515 104.401 114.059 104.048C114.604 103.695 114.759 102.967 114.405 102.423Z" fill="white"/>
<path opacity="0.3" d="M306.285 379.759C305.931 379.215 305.204 379.06 304.659 379.413C304.115 379.766 303.96 380.494 304.313 381.038C304.666 381.583 305.394 381.738 305.939 381.384C306.483 381.031 306.638 380.303 306.285 379.759Z" fill="white"/>
<path opacity="0.3" d="M305.088 437.251C304.734 436.707 304.007 436.552 303.462 436.905C302.918 437.258 302.763 437.986 303.116 438.53C303.47 439.075 304.197 439.23 304.742 438.876C305.286 438.523 305.441 437.795 305.088 437.251Z" fill="white"/>
<path opacity="0.11" d="M74.3452 75.2121C73.9919 74.6677 73.2643 74.5128 72.7199 74.8661C72.1756 75.2194 72.0207 75.947 72.3739 76.4914C72.7272 77.0357 73.4548 77.1906 73.9992 76.8373C74.5435 76.4841 74.6985 75.7564 74.3452 75.2121Z" fill="white"/>
<path opacity="0.3" d="M242.622 377.673C242.268 377.129 241.541 376.974 240.996 377.327C240.452 377.68 240.297 378.408 240.65 378.952C241.004 379.497 241.731 379.652 242.276 379.298C242.82 378.945 242.975 378.217 242.622 377.673Z" fill="white"/>
<path opacity="0.11" d="M241.401 397.368C241.048 396.824 240.32 396.669 239.776 397.022C239.231 397.375 239.076 398.103 239.43 398.647C239.783 399.192 240.511 399.347 241.055 398.993C241.599 398.64 241.754 397.912 241.401 397.368Z" fill="white"/>
<path opacity="0.3" d="M275.485 380.845C275.132 380.301 274.404 380.146 273.86 380.499C273.316 380.852 273.161 381.58 273.514 382.124C273.867 382.669 274.595 382.824 275.139 382.47C275.684 382.117 275.838 381.389 275.485 380.845Z" fill="white"/>
<path d="M255.013 350.38C254.748 349.972 254.202 349.856 253.794 350.121C253.386 350.386 253.27 350.931 253.535 351.339C253.799 351.747 254.345 351.864 254.753 351.599C255.161 351.334 255.277 350.788 255.013 350.38Z" fill="white"/>
</g>
</g>
<defs>
<radialGradient id="paint0_radial_5_36" cx="0" cy="0" r="1" gradientUnits="userSpaceOnUse" gradientTransform="translate(436 1603) scale(851.15 851.15)">
<stop/>
<stop offset="1" stop-opacity="0"/>
</radialGradient>
<clipPath id="clip0_5_36">
<rect width="872" height="731" fill="white" transform="translate(0 872) rotate(-90)"/>
</clipPath>
</defs>
</svg>
